<?xml version="1.0" encoding="UTF-8" standalone="no"?>
<!-- Generator: Adobe Illustrator 25.2.3, SVG Export Plug-In . SVG Version: 6.00 Build 0)  -->

<svg
   version="1.1"
   id="Layer_1"
   x="0px"
   y="0px"
   width="1024"
   height="1024"
   viewBox="0 0 1024 1024"
   xml:space="preserve"
   sodipodi:docname="logo-header.svg"
   inkscape:version="1.2 (dc2aedaf03, 2022-05-15)"
   xmlns:inkscape="http://www.inkscape.org/namespaces/inkscape"
   xmlns:sodipodi="http://sodipodi.sourceforge.net/DTD/sodipodi-0.dtd"
   xmlns="http://www.w3.org/2000/svg"
   xmlns:svg="http://www.w3.org/2000/svg"><defs
   id="defs35" /><sodipodi:namedview
   id="namedview33"
   pagecolor="#ffffff"
   bordercolor="#000000"
   borderopacity="0.25"
   inkscape:showpageshadow="2"
   inkscape:pageopacity="0.0"
   inkscape:pagecheckerboard="true"
   inkscape:deskcolor="#d1d1d1"
   showgrid="false"
   inkscape:zoom="0.50416667"
   inkscape:cx="518.67769"
   inkscape:cy="345.12397"
   inkscape:window-width="1920"
   inkscape:window-height="1009"
   inkscape:window-x="1912"
   inkscape:window-y="-8"
   inkscape:window-maximized="1"
   inkscape:current-layer="g30" />
<style
   type="text/css"
   id="style2">
	.st0{opacity:0.6;fill:#FFFFFF;}
	.st1{fill:#FFFFFF;}
	.st2{opacity:0.6;fill:#050D24;}
	.st3{fill:#050D24;}
	.st4{opacity:0.6;}
</style>
<g
   id="g30"
   transform="translate(-426.44628,-351.07438)">
	<g
   id="g14">
		
		
	</g>
	
	
<rect
   style="fill:#ffffff;fill-opacity:1;stroke-width:2.84286"
   id="rect1723"
   width="1024"
   height="1024"
   x="426.44629"
   y="351.0744"
   ry="208.52898" /><g
   id="g963-5-2"
   transform="matrix(9.0572804,0,0,9.0747994,-1790.2582,-109.90421)"><path
     class="st2"
     d="m 301.37545,133.03521 c -3.53,0 -6.87,-0.69 -9.95,-2.05 -3.12,-1.38 -5.87,-3.26 -8.19,-5.57 -2.31,-2.3 -4.19,-5.05 -5.58,-8.17 -1.08,-2.41 -1.74,-5.08 -1.95,-7.94 l -0.12,-1.66 h -18.18 l 0.09,1.88 c 0.26,5.25 1.39,10.23 3.34,14.79 2.28,5.32 5.46,10.04 9.44,14.02 3.97,3.98 8.69,7.15 14.02,9.44 5.33,2.29 11.07,3.45 17.07,3.45 h 2.92 v -18.21 h -2.91 z"
     id="path4-9-9"
     style="opacity:0.6;fill:#050d24" /><path
     class="st3"
     d="m 341.90545,90.035207 c -2.28,-5.32 -5.47,-10.01 -9.48,-13.96 -4,-3.93 -8.7,-7.05 -13.96,-9.27 -10.7,-4.51 -23.44,-4.48 -34.09,0.09 -5.32,2.27 -10.05,5.45 -14.05,9.44 -4,3.99 -7.18,8.68 -9.46,13.94 -2.29,5.3 -3.45,11.010003 -3.45,16.990003 0,0.56 0.03,1.09 0.07,1.6 0.01,0.22 0.03,0.45 0.04,0.67 l 0.03,0.68 h 18.24 l -0.07,-0.98 c -0.05,-0.66 -0.09,-1.28 -0.09,-1.9 0,-3.54 0.69,-6.9 2.06,-10.010003 1.38,-3.16 3.26,-5.92 5.57,-8.23 2.31,-2.3 5.05,-4.14 8.15,-5.46 6.14,-2.62 13.82,-2.62 20.06,0 3.17,1.34 5.93,3.18 8.22,5.46 2.31,2.31 4.15,5.07 5.48,8.21 1.33,3.130003 2,6.510003 2,10.050003 v 0.3 3.59 40.01 h 18.21 v -40.01 -3.59 -0.39 c -0.02,-6.09 -1.18,-11.890003 -3.48,-17.230003 z"
     id="path16-4-1"
     style="fill:#050d24" /></g></g>
</svg>
